PathFileType	4	(X/Y/Z)	C:/Users/opensim2020/Desktop/walking_exp_matlab/subject03_walking12_straight_01.trc																																																																																																																																														
DataRate	CameraRate	NumFrames	NumMarkers	Units	OrigDataRate	OrigDataStartFrame	OrigNumFrames																																																																																																																																										
100	100	5	48	mm	100	660	211																																																																																																																																										
Frame#	Time	LFHD			RFHD			LBHD			RBHD			C7			T10			CLAV			STRN			RBAK			LSHO			LUPA			LELB			LFRM			LWRA			LWRB			LFIN			RSHO			RUPA			RELB			RFRM			RWRA			RWRB			RFIN			LASI			RASI			LPSI			RPSI			LTHI			LKNE			LTIB			LANK			LHEE			LTOE			RTHI			RKNE			RTIB			RANK			RHEE			RTOE			*39			*40			*41			*42			*43			*44			*45			*46			*47		
		X1	Y1	Z1	X2	Y2	Z2	X3	Y3	Z3	X4	Y4	Z4	X5	Y5	Z5	X6	Y6	Z6	X7	Y7	Z7	X8	Y8	Z8	X9	Y9	Z9	X10	Y10	Z10	X11	Y11	Z11	X12	Y12	Z12	X13	Y13	Z13	X14	Y14	Z14	X15	Y15	Z15	X16	Y16	Z16	X17	Y17	Z17	X18	Y18	Z18	X19	Y19	Z19	X20	Y20	Z20	X21	Y21	Z21	X22	Y22	Z22	X23	Y23	Z23	X24	Y24	Z24	X25	Y25	Z25	X26	Y26	Z26	X27	Y27	Z27	X28	Y28	Z28	X29	Y29	Z29	X30	Y30	Z30	X31	Y31	Z31	X32	Y32	Z32	X33	Y33	Z33	X34	Y34	Z34	X35	Y35	Z35	X36	Y36	Z36	X37	Y37	Z37	X38	Y38	Z38	X39	Y39	Z39	X40	Y40	Z40	X41	Y41	Z41	X42	Y42	Z42	X43	Y43	Z43	X44	Y44	Z44	X45	Y45	Z45	X46	Y46	Z46	X47	Y47	Z47	X48	Y48	Z48
																																																																																																																																																	
106	1.05	-170.8006	1609.48987	-1083.90723	-189.47067	1615.80481	-951.83185	-283.23801	1535.82227	-1093.25977	-297.02921	1542.40051	-963.20697	-295.06808	1392.92725	-1034.98474	-335.93298	1086.47607	-1026.76453	-169.86011	1320.87585	-1018.65259	-127.52486	1153.86792	-1025.8855	-355.33676	1220.7251	-946.04651	-198.86339	1358.73596	-1176.98425	-157.5618	1176.94275	-1257.10022	-108.53947	1064.70862	-1272.15503	-24.0785	967.85242	-1256.40125	47.44839	880.25964	-1210.17383	34.69733	870.18457	-1263.00281	92.18208	812.7998	-1243.10266	-237.83871	1342.80029	-865.12134	-283.30215	1126.84241	-792.80243	-291.45572	1013.85248	-776.72852	-303.87192	877.17371	-771.92688	-289.68054	776.31213	-802.74817	-326.50507	779.1095	-763.38342	-318.061	704.4798	-770.31982	-184.66173	919.65582	-1146.43738	-170.24579	917.875	-910.58307	-343.13504	942.83911	-1083.07373	-332.59021	942.78387	-935.67419	-289.98532	627.40979	-1183.80737	-327.48102	452.57584	-1146.53259	-445.53952	287.60873	-1146.58887	-538.87256	95.94543	-1102.9104	-588.90234	76.40228	-1066.67175	-402.35016	27.33874	-1070.03809	-159.20747	624.70587	-856.28455	-68.90596	471.78101	-899.74939	-40.838	285.97748	-896.05798	15.91513	76.42133	-939.72357	-14.11203	33.56897	-994.86237	159.91119	75.72296	-949.47296	NaN	NaN	NaN	NaN	NaN	NaN	NaN	NaN	NaN	NaN	NaN	NaN	NaN	NaN	NaN	NaN	NaN	NaN	NaN	NaN	NaN	NaN	NaN	NaN	NaN	NaN	NaN
107	1.06	-157.0076	1607.7771	-1083.33704	-175.67307	1614.10156	-951.29034	-269.39636	1533.9978	-1092.6825	-283.1601	1540.42761	-962.67804	-281.34683	1390.87524	-1033.93115	-321.27457	1084.23682	-1025.95166	-155.80984	1319.1532	-1018.51154	-113.05186	1152.28784	-1026.44519	-340.59491	1218.25635	-945.07971	-186.22929	1357.23621	-1176.55298	-143.37279	1176.36438	-1256.86792	-93.27209	1064.91077	-1272.17773	-5.43728	971.65851	-1255.53345	69.59015	887.9519	-1207.99072	57.11258	876.3689	-1260.5824	116.87801	821.72736	-1239.7334	-223.04236	1340.66895	-864.51068	-269.51465	1124.95349	-792.57391	-279.11523	1012.05499	-776.57068	-293.72226	875.59332	-771.64471	-279.79465	775.01727	-802.19861	-318.15527	777.8916	-762.87689	-311.40005	702.97473	-770.41687	-170.81607	917.47095	-1146.56323	-153.91203	916.18494	-910.91699	-328.54587	940.43561	-1081.17603	-316.5665	940.97437	-933.84015	-277.96286	626.12073	-1183.94641	-317.01175	451.19391	-1147.56812	-438.66803	288.69803	-1147.16626	-536.55914	99.38039	-1103.43945	-586.68964	81.02699	-1067.4884	-402.11334	27.31945	-1070.00854	-143.02975	623.01837	-855.94183	-52.42912	470.95081	-900.51233	-21.84715	285.53049	-896.59167	36.42876	76.29416	-940.80707	6.74582	32.97915	-995.97461	180.57278	77.58894	-951.08362	NaN	NaN	NaN	-258.58401	1647.48987	-1045.45313	NaN	NaN	NaN	NaN	NaN	NaN	NaN	NaN	NaN	NaN	NaN	NaN	NaN	NaN	NaN	NaN	NaN	NaN	NaN	NaN	NaN
108	1.07	-143.21544	1606.10291	-1082.63501	-161.81963	1612.30347	-950.64899	-255.54567	1532.29834	-1092.11194	-269.28741	1538.57996	-962.05432	-267.56726	1388.86694	-1032.81201	-306.38928	1082.04553	-1025.15308	-141.69981	1317.48462	-1018.23987	-98.38501	1150.81433	-1026.78064	-325.80792	1215.88416	-944.09717	-173.63721	1355.83911	-1176.00549	-129.66489	1175.77173	-1256.49207	-78.67249	1064.99402	-1271.85059	12.35824	975.49384	-1254.6073	90.59657	895.68671	-1205.83594	78.44785	882.64795	-1258.16943	140.52028	830.95715	-1236.60242	-208.15182	1338.71277	-863.88635	-255.35516	1123.16931	-792.26617	-266.14978	1010.3623	-776.47064	-283.01312	874.09039	-771.29706	-272.16718	772.60944	-801.76013	-309.21231	776.79114	-762.64185	-304.18896	701.54791	-770.1178	-156.79605	915.2345	-1147.3147	-137.42868	914.69727	-911.10913	-313.5563	938.11627	-1079.4563	-300.2948	939.46851	-932.34772	-265.18921	624.76495	-1184.06128	-305.4422	449.71115	-1149.11853	-430.82886	289.82462	-1147.95007	-533.45074	103.05866	-1104.01001	-584.30469	86.69579	-1068.11157	-401.79523	27.27002	-1069.99377	-125.14767	622.29742	-856.05139	-35.11778	470.63104	-901.31409	-4.08491	284.64868	-897.34973	53.28052	75.24579	-942.17975	23.25633	31.597	-996.6571	197.23552	77.31828	-953.87567	NaN	NaN	NaN	-244.96892	1646.25146	-1044.85034	NaN	NaN	NaN	NaN	NaN	NaN	NaN	NaN	NaN	NaN	NaN	NaN	NaN	NaN	NaN	NaN	NaN	NaN	NaN	NaN	NaN
109	1.08	-129.36664	1604.59619	-1082.02271	-147.98669	1610.49353	-949.8584	-241.67339	1530.66626	-1091.44836	-255.34436	1536.87122	-961.42914	-253.6853	1386.85156	-1031.61914	-291.31113	1079.88562	-1024.39697	-127.40198	1315.9325	-1017.90558	-83.45345	1149.44592	-1026.90747	-310.81241	1213.51978	-943.0592	-161.09615	1354.55322	-1175.32556	-116.4015	1175.05298	-1256.21594	-64.49369	1065.09827	-1271.70142	29.2777	979.27466	-1253.60266	110.57225	903.3476	-1203.83643	98.82507	888.97272	-1255.87219	163.1291	840.45239	-1233.65393	-193.20334	1336.93994	-863.16687	-240.78352	1121.4718	-791.94244	-252.76088	1008.80084	-776.35742	-271.57434	872.77893	-770.93378	-262.50879	770.94971	-801.31622	-299.50159	775.81079	-762.11115	-295.76489	700.54565	-769.56097	-142.01518	913.02588	-1147.30627	-120.80202	913.513	-911.05682	-298.1351	935.87787	-1077.99268	-284.02936	938.13904	-931.09094	-251.37233	623.22485	-1184.28992	-292.52386	447.87488	-1150.76831	-421.97839	290.91852	-1149.06506	-530.0578	107.51459	-1105.20813	-581.30396	93.2277	-1068.87842	-401.54037	27.2124	-1070.04968	-105.82901	622.46289	-856.77667	-16.92214	470.93274	-902.2597	12.42778	283.4108	-898.23102	66.69592	73.28481	-943.35382	35.05974	29.88142	-997.49451	210.11433	74.59708	-957.70135	-229.64635	1642.47998	-1046.29712	NaN	NaN	NaN	NaN	NaN	NaN	NaN	NaN	NaN	NaN	NaN	NaN	NaN	NaN	NaN	NaN	NaN	NaN	NaN	NaN	NaN	NaN	NaN	NaN
110	1.09	-115.54604	1603.16101	-1081.33728	-134.09265	1608.84875	-949.16687	-227.83478	1529.13525	-1090.74512	-241.40585	1535.19226	-960.66272	-239.72801	1384.8385	-1030.43188	-276.03403	1077.77197	-1023.62372	-113.04166	1314.48206	-1017.43066	-68.37049	1148.28882	-1026.79956	-295.62158	1211.17725	-941.91138	-148.5553	1353.41772	-1174.73779	-103.54971	1174.21509	-1255.94775	-50.76657	1064.96326	-1271.37634	45.38639	982.90802	-1252.63794	129.40869	910.90277	-1201.92993	118.08451	895.14948	-1253.67212	184.5829	849.98145	-1231.03259	-178.09009	1335.2251	-862.42206	-226.08566	1119.86194	-791.5686	-238.87305	1007.25024	-776.21356	-259.34875	871.45007	-770.48364	-252.17923	769.45044	-800.83533	-289.05011	774.95221	-761.54199	-287.25385	699.27246	-769.88336	-126.57633	910.90601	-1147.06433	-103.96609	912.68408	-910.76019	-282.23065	933.68536	-1076.79102	-267.71597	936.92761	-930.08051	-236.52782	621.44531	-1184.77356	-278.07883	445.78104	-1152.2074	-411.95679	292.09055	-1150.30664	-525.9389	112.71337	-1105.73511	-577.29071	100.47401	-1069.76965	-401.27686	26.96761	-1070.15649	-85.33749	623.23169	-857.50574	1.95502	471.51447	-903.50232	27.86361	281.73355	-899.27582	76.86375	70.64417	-945.08417	42.29422	29.01742	-997.43182	219.68201	69.37108	-961.88422	NaN	NaN	NaN	NaN	NaN	NaN	NaN	NaN	NaN	NaN	NaN	NaN	NaN	NaN	NaN	NaN	NaN	NaN	NaN	NaN	NaN	NaN	NaN	NaN	NaN	NaN	NaN
